<?xml version="1.0" encoding="utf-8"?>
<!-- Generator: Adobe Illustrator 25.2.1, SVG Export Plug-In . SVG Version: 6.00 Build 0)  -->
<svg version="1.1" id="Layer_1" xmlns="http://www.w3.org/2000/svg" xmlns:xlink="http://www.w3.org/1999/xlink" x="0px" y="0px"
	 viewBox="0 0 100 100" style="enable-background:new 0 0 100 100;" xml:space="preserve">
<style type="text/css">
	.st0{fill:url(#SVGID_1_);}
	.st1{fill:url(#SVGID_2_);}
	.st2{fill:url(#SVGID_3_);}
	.st3{fill:url(#SVGID_4_);}
	.st4{fill:url(#SVGID_5_);}
	.st5{fill:url(#SVGID_6_);}
</style>
<g id="Guides">
</g>
<linearGradient id="SVGID_1_" gradientUnits="userSpaceOnUse" x1="0.1816" y1="97.8031" x2="100.1801" y2="98.1983">
	<stop  offset="0" style="stop-color:#61CAE3"/>
	<stop  offset="1" style="stop-color:#3489C9"/>
</linearGradient>
<path class="st0" d="M98,96H2c-1.1,0-2,0.9-2,2c0,1.1,0.9,2,2,2h96c1.1,0,2-0.9,2-2C100,96.9,99.1,96,98,96z"/>
<linearGradient id="SVGID_2_" gradientUnits="userSpaceOnUse" x1="0.15" y1="89.803" x2="100.2379" y2="90.1986">
	<stop  offset="0" style="stop-color:#61CAE3"/>
	<stop  offset="1" style="stop-color:#3489C9"/>
</linearGradient>
<path class="st1" d="M6,90c0,1.1,0.9,2,2,2h84c1.1,0,2-0.9,2-2c0-1.1-0.9-2-2-2H8C6.9,88,6,88.9,6,90z"/>
<linearGradient id="SVGID_3_" gradientUnits="userSpaceOnUse" x1="-0.1182" y1="61.6754" x2="99.9697" y2="62.071">
	<stop  offset="0" style="stop-color:#61CAE3"/>
	<stop  offset="1" style="stop-color:#3489C9"/>
</linearGradient>
<path class="st2" d="M76,84h8c1.1,0,2-0.9,2-2V46c0-1.1,0.9-2,2-2s2-0.9,2-2c0-1.1-0.9-2-2-2h-2H74h-2c-1.1,0-2,0.9-2,2
	c0,1.1,0.9,2,2,2s2,0.9,2,2v36C74,83.1,74.9,84,76,84z"/>
<linearGradient id="SVGID_4_" gradientUnits="userSpaceOnUse" x1="-0.1187" y1="61.794" x2="99.9692" y2="62.1896">
	<stop  offset="0" style="stop-color:#61CAE3"/>
	<stop  offset="1" style="stop-color:#3489C9"/>
</linearGradient>
<path class="st3" d="M46,84h8c1.1,0,2-0.9,2-2V46c0-1.1,0.9-2,2-2s2-0.9,2-2c0-1.1-0.9-2-2-2h-2H44h-2c-1.1,0-2,0.9-2,2
	c0,1.1,0.9,2,2,2s2,0.9,2,2v36C44,83.1,44.9,84,46,84z"/>
<linearGradient id="SVGID_5_" gradientUnits="userSpaceOnUse" x1="-0.1192" y1="61.9126" x2="99.9687" y2="62.3082">
	<stop  offset="0" style="stop-color:#61CAE3"/>
	<stop  offset="1" style="stop-color:#3489C9"/>
</linearGradient>
<path class="st4" d="M16,84h8c1.1,0,2-0.9,2-2V46c0-1.1,0.9-2,2-2s2-0.9,2-2c0-1.1-0.9-2-2-2h-2H14h-2c-1.1,0-2,0.9-2,2
	c0,1.1,0.9,2,2,2s2,0.9,2,2v36C14,83.1,14.9,84,16,84z"/>
<linearGradient id="SVGID_6_" gradientUnits="userSpaceOnUse" x1="6.348471e-02" y1="17.8971" x2="100.0619" y2="18.2924">
	<stop  offset="0" style="stop-color:#61CAE3"/>
	<stop  offset="1" style="stop-color:#3489C9"/>
</linearGradient>
<path class="st5" d="M2.2,36h95.6c2.1,0,3-2.5,1.3-3.7l-48-32c-0.7-0.4-1.5-0.4-2.2,0l-48,32C-0.8,33.5,0.1,36,2.2,36z M40.1,12
	c2.7-2.7,7.2-2.7,9.9,0c2.7-2.7,7.2-2.7,9.9,0c2.7,2.7,2.7,7.2,0,9.9l-8.5,8.5c-0.8,0.8-2,0.8-2.8,0l-8.5-8.5
	C37.3,19.2,37.3,14.7,40.1,12z"/>
</svg>
