<?xml version="1.0" encoding="utf-8"?>
<!-- Generator: Adobe Illustrator 25.2.3, SVG Export Plug-In . SVG Version: 6.00 Build 0)  -->
<svg version="1.1" id="Layer_1" xmlns="http://www.w3.org/2000/svg" xmlns:xlink="http://www.w3.org/1999/xlink" x="0px" y="0px"
	 viewBox="0 0 1000 1000" style="enable-background:new 0 0 1000 1000;" xml:space="preserve">
<style type="text/css">
	.st0{fill:url(#SVGID_1_);}
	.st1{fill:url(#SVGID_2_);}
	.st2{fill:#F7941D;}
	.st3{fill:url(#SVGID_3_);}
</style>
<linearGradient id="SVGID_1_" gradientUnits="userSpaceOnUse" x1="139.1174" y1="153.9331" x2="860.8826" y2="846.067" gradientTransform="matrix(0.9998 0.021 -0.021 0.9998 10.586 -10.3665)">
	<stop  offset="0" style="stop-color:#61CAE3"/>
	<stop  offset="1" style="stop-color:#3489C9"/>
</linearGradient>
<circle class="st0" cx="500" cy="500" r="500"/>
<linearGradient id="SVGID_2_" gradientUnits="userSpaceOnUse" x1="215.4395" y1="253.9608" x2="746.0392" y2="784.5605">
	<stop  offset="0" style="stop-color:#FBDC3A"/>
	<stop  offset="1" style="stop-color:#F7CE15"/>
</linearGradient>
<path class="st1" d="M865.75,416.87c-3.65-16.1-24.26-21.16-34.8-8.45c-3.36,4.05-6.94,7.99-10.74,11.78
	c-28.7,28.7-65.11,44.98-102.56,48.87c-10.58,1.1-18.41,10.39-17.89,21.01c0.16,3.28,0.24,6.59,0.24,9.91
	c0,110.46-89.54,200-200,200c-110.78,0-200-89.22-200-200c0-110.46,89.54-200,200-200c3.32,0,6.63,0.08,9.91,0.24
	c10.62,0.52,19.92-7.31,21.01-17.89c3.88-37.45,20.17-73.86,48.87-102.56c3.8-3.8,7.73-7.38,11.78-10.74
	c12.71-10.54,7.66-31.16-8.45-34.8C556.39,128.2,528.57,125,500,125c-207.12,0-374.53,167.01-375,374.13
	C124.53,706.93,293.07,875.47,500.87,875C707.99,874.53,875,707.12,875,500C875,471.43,871.8,443.61,865.75,416.87z"/>
<circle class="st2" cx="750" cy="250" r="100"/>
<linearGradient id="SVGID_3_" gradientUnits="userSpaceOnUse" x1="593.934" y1="193.934" x2="806.066" y2="406.066">
	<stop  offset="0" style="stop-color:#FBDC3A"/>
	<stop  offset="1" style="stop-color:#F7CE15"/>
</linearGradient>
<circle class="st3" cx="700" cy="300" r="150"/>
<ellipse transform="matrix(0.7071 -0.7071 0.7071 0.7071 -3.4673 531.6293)" cx="640" cy="270" rx="50.59" ry="25.29"/>
<ellipse transform="matrix(0.7071 -0.7071 0.7071 0.7071 -40.7465 621.6292)" cx="730" cy="360" rx="50.59" ry="25.29"/>
</svg>
