<?xml version="1.0" encoding="utf-8"?>
<!-- Generator: Adobe Illustrator 25.2.1, SVG Export Plug-In . SVG Version: 6.00 Build 0)  -->
<svg version="1.1" id="Layer_1" xmlns="http://www.w3.org/2000/svg" xmlns:xlink="http://www.w3.org/1999/xlink" x="0px" y="0px"
	 viewBox="0 0 122.9 122.9" style="enable-background:new 0 0 122.9 122.9;" xml:space="preserve">
<g>
	<path d="M61.4,0c8.3,0,16.3,1.7,23.5,4.7l0.1,0.1c7.5,3.1,14.2,7.7,19.8,13.3l0,0c5.7,5.6,10.2,12.4,13.3,19.9
		c3,7.2,4.7,15.2,4.7,23.5c0,8.3-1.7,16.2-4.7,23.5l-0.1,0.1c-3.1,7.5-7.7,14.2-13.3,19.8l0,0c-5.7,5.7-12.4,10.2-19.9,13.3
		c-7.2,3-15.2,4.7-23.5,4.7s-16.2-1.7-23.5-4.7l-0.1-0.1c-7.5-3.1-14.2-7.7-19.8-13.3l0,0C12.3,99.2,7.8,92.4,4.7,84.9
		C1.7,77.7,0,69.8,0,61.4s1.7-16.2,4.7-23.5l0.1-0.1C7.8,30.4,12.4,23.6,18,18l0,0C23.7,12.3,30.4,7.8,38,4.7
		C45.2,1.7,53.1,0,61.4,0L61.4,0z M17,94.5l0.2-0.1c5.9-3.3,21.3-4.4,27.6-8.8c0.5-0.7,1-1.7,1.5-2.8c0.7-1.7,1.4-3.5,1.8-4.7
		c-1.8-2.1-3.3-4.5-4.8-6.8l-4.8-7.7c-1.8-2.6-2.7-5-2.7-7c0-0.9,0.1-1.8,0.5-2.5c0.4-0.8,0.9-1.4,1.7-1.9c0.3-0.2,0.7-0.4,1.2-0.6
		c-0.3-4.2-0.4-9.4-0.2-13.8c0.1-1,0.3-2.1,0.6-3.1c1.2-4.4,4.3-8,8.2-10.4c2.1-1.4,4.4-2.4,6.8-3c1.5-0.4,5.4-1.1,7-1.3
		c7.7-0.8,13.4,2,18.8,7.8c2.7,2.9,4.4,6.8,4.7,11.8l-0.3,12.5l0,0c1.3,0.4,2.2,1.3,2.5,2.6c0.4,1.5,0,3.7-1.3,6.6l0,0
		c0,0-0.1,0.1-0.1,0.2l-5.5,9.1c-2,3.3-4.1,6.7-6.8,9.3c0.3,0.4,0.5,0.7,0.7,1.1c1.1,1.6,2.2,3.2,3.6,4.6c0.1,0.1,0.1,0.1,0.1,0.2
		c6.3,4.5,21.8,5.6,27.7,8.9l0.2,0.1c6.9-9.2,10.9-20.7,10.9-33c0-15.3-6.2-29.1-16.2-39.2c-10-10-23.8-16.2-39.1-16.2
		s-29.1,6.2-39.2,16.2c-10,10-16.2,23.9-16.2,39.1C6.1,73.8,10.1,85.2,17,94.5L17,94.5L17,94.5z"/>
</g>
</svg>
