<?xml version="1.0" encoding="utf-8"?>
<!-- Generator: Adobe Illustrator 25.2.3, SVG Export Plug-In . SVG Version: 6.00 Build 0)  -->
<svg version="1.1" id="Layer_1" xmlns="http://www.w3.org/2000/svg" xmlns:xlink="http://www.w3.org/1999/xlink" x="0px" y="0px"
	 viewBox="0 0 1000 1000" style="enable-background:new 0 0 1000 1000;" xml:space="preserve">
<style type="text/css">
	.st0{fill:url(#SVGID_1_);}
	.st1{fill:url(#SVGID_2_);}
	.st2{fill:url(#SVGID_3_);}
</style>
<linearGradient id="SVGID_1_" gradientUnits="userSpaceOnUse" x1="139.1174" y1="153.9331" x2="860.8826" y2="846.067" gradientTransform="matrix(0.9998 0.021 -0.021 0.9998 10.586 -10.3665)">
	<stop  offset="0" style="stop-color:#61CAE3"/>
	<stop  offset="1" style="stop-color:#3489C9"/>
</linearGradient>
<circle class="st0" cx="500" cy="500" r="500"/>
<g>
	<linearGradient id="SVGID_2_" gradientUnits="userSpaceOnUse" x1="349.7707" y1="154.3641" x2="873.7037" y2="667.6046">
		<stop  offset="0" style="stop-color:#FBDC3A"/>
		<stop  offset="1" style="stop-color:#F7CE15"/>
	</linearGradient>
	<circle class="st1" cx="750.22" cy="546.64" r="124.78"/>
	<linearGradient id="SVGID_3_" gradientUnits="userSpaceOnUse" x1="233.2505" y1="273.3046" x2="757.1835" y2="786.545">
		<stop  offset="0" style="stop-color:#FBDC3A"/>
		<stop  offset="1" style="stop-color:#F7CE15"/>
	</linearGradient>
	<path class="st2" d="M138.55,699.29c-23.41,13.01-14.61,48.61,12.17,49.22l496.88-0.01c20.77,0.47,33.85-22.22,23.02-39.95
		L499.04,427.5c-0.95-1.56-2.15-2.78-3.32-4.05l-23.87-40.59l263.66-43.74c32.77-5.44,54.85-37.74,49.57-72.51
		c-5.39-35.44-37.11-59.9-70.51-54.36l-372.58,61.8c-32.77,5.44-54.85,37.74-49.57,72.51c0.5,3.3,1.45,6.4,2.39,9.49
		c1.21,4.87,2.87,9.64,5.5,14.11L391,524.4c5.47,9.3,2.58,21.26-6.53,27.03"/>
</g>
</svg>
